<svg xmlns="http://www.w3.org/2000/svg" xmlns:xlink="http://www.w3.org/1999/xlink" width="1920" zoomAndPan="magnify" viewBox="0 0 1440 809.999993" height="1080" preserveAspectRatio="xMidYMid meet" version="1.0"><defs><g/></defs><g fill="#8164af" fill-opacity="1"><g transform="translate(-15.111997, 507.366387)"><g><path d="M 235.527344 -251.558594 L 174.28125 -251.558594 L 77.6875 -125.777344 L 178.390625 0 L 239.636719 0 L 138.109375 -125.777344 Z M 27.539062 -251.558594 L 27.539062 0 L 76.863281 0 L 76.863281 -251.558594 Z M 27.539062 -251.558594 "/></g></g></g><g fill="#8164af" fill-opacity="1"><g transform="translate(224.515093, 507.366387)"><g><path d="M 173.046875 -102.761719 C 173.046875 -62.476562 152.085938 -43.980469 118.378906 -43.980469 C 77.6875 -43.980469 62.066406 -70.289062 62.066406 -102.761719 C 62.066406 -135.230469 78.097656 -161.539062 118.378906 -161.539062 C 155.375 -161.539062 171.402344 -138.933594 173.046875 -102.761719 Z M 238.816406 0 C 220.730469 -40.28125 223.195312 -81.796875 222.371094 -102.761719 C 219.90625 -166.882812 180.859375 -207.574219 118.378906 -207.574219 C 51.378906 -207.574219 12.742188 -160.71875 12.742188 -103.171875 C 12.742188 -44.390625 54.257812 2.054688 112.625 2.054688 C 143.453125 2.054688 165.238281 -11.097656 179.214844 -31.648438 C 181.679688 -21.375 184.96875 -10.6875 189.488281 0 Z M 238.816406 0 "/></g></g></g><g fill="#8164af" fill-opacity="1"><g transform="translate(471.540632, 507.366387)"><g><path d="M 73.988281 -102.761719 C 73.988281 -134.820312 88.375 -159.894531 133.175781 -159.894531 C 138.519531 -159.894531 143.453125 -158.660156 148.796875 -157.839844 L 148.796875 -205.519531 C 142.632812 -206.34375 136.875 -207.574219 130.710938 -207.574219 C 62.890625 -207.574219 24.664062 -160.71875 24.664062 -102.347656 L 24.664062 0 L 73.988281 0 Z M 73.988281 -102.761719 "/></g></g></g><g fill="#8164af" fill-opacity="1"><g transform="translate(628.55182, 507.366387)"><g><path d="M 73.988281 -102.761719 C 73.988281 -143.042969 94.949219 -161.539062 128.65625 -161.539062 C 169.347656 -161.539062 184.96875 -135.230469 184.96875 -102.761719 C 184.96875 -70.289062 169.347656 -43.980469 128.65625 -43.980469 C 94.949219 -43.980469 73.988281 -62.476562 73.988281 -102.761719 Z M 73.988281 -23.429688 C 87.960938 -7.808594 107.691406 2.054688 134.410156 2.054688 C 192.777344 2.054688 234.292969 -44.390625 234.292969 -103.171875 C 234.292969 -157.839844 198.53125 -207.574219 129.066406 -207.574219 C 61.65625 -207.574219 24.664062 -160.71875 24.664062 -102.761719 L 24.664062 82.207031 L 73.988281 82.207031 Z M 73.988281 -23.429688 "/></g></g></g><g fill="#8164af" fill-opacity="1"><g transform="translate(875.166277, 507.366387)"><g><path d="M 173.460938 -205.519531 L 173.460938 -102.761719 C 173.460938 -68.234375 157.015625 -43.980469 122.078125 -43.980469 C 87.140625 -43.980469 70.699219 -68.234375 70.699219 -102.761719 L 70.699219 -205.519531 L 21.375 -205.519531 L 21.375 -102.761719 C 21.375 -44.390625 58.367188 2.054688 122.078125 2.054688 C 185.789062 2.054688 222.785156 -44.390625 222.785156 -102.761719 L 222.785156 -205.519531 Z M 173.460938 -205.519531 "/></g></g></g><g fill="#8164af" fill-opacity="1"><g transform="translate(1122.60282, 507.366387)"><g><path d="M 24.664062 -287.726562 L 24.664062 0 L 73.988281 0 L 73.988281 -287.726562 Z M 24.664062 -287.726562 "/></g></g></g><g fill="#8164af" fill-opacity="1"><g transform="translate(1221.248636, 507.366387)"><g><path d="M 66.589844 -129.066406 C 73.988281 -147.972656 90.429688 -159.894531 119.203125 -159.894531 C 140.988281 -159.894531 154.960938 -152.90625 154.960938 -139.753906 C 154.960938 -126.601562 140.988281 -119.613281 117.96875 -119.613281 C 101.527344 -119.613281 81.386719 -123.3125 66.589844 -129.066406 Z M 190.3125 -53.023438 C 174.691406 -48.089844 143.863281 -45.214844 126.1875 -45.214844 C 85.496094 -45.214844 68.644531 -60.835938 63.710938 -84.261719 C 79.742188 -76.453125 99.472656 -71.933594 117.558594 -71.933594 C 168.9375 -71.933594 204.699219 -99.472656 204.699219 -139.753906 C 204.699219 -180.035156 168.527344 -207.574219 117.558594 -207.574219 C 50.96875 -207.574219 12.742188 -160.71875 12.742188 -101.9375 C 12.742188 -44.804688 49.324219 2.464844 122.902344 2.464844 C 142.21875 2.464844 170.171875 -0.820312 190.3125 -6.578125 Z M 190.3125 -53.023438 "/></g></g></g></svg>